<mxfile host="Electron" agent="Mozilla/5.0 (Windows NT 10.0; Win64; x64) AppleWebKit/537.36 (KHTML, like Gecko) draw.io/27.0.2 Chrome/134.0.6998.205 Electron/35.3.0 Safari/537.36" version="27.0.2">
  <diagram name="Страница — 1" id="9_P2-rYQZiLMmGjlNb-p">
    <mxGraphModel dx="1546" dy="1393" grid="1" gridSize="10" guides="1" tooltips="1" connect="1" arrows="1" fold="1" page="1" pageScale="1" pageWidth="811" pageHeight="488" math="0" shadow="0">
      <root>
        <mxCell id="0" />
        <mxCell id="1" parent="0" />
        <mxCell id="guh7QBim6oXihNVBIwgo-8" style="edgeStyle=orthogonalEdgeStyle;rounded=0;orthogonalLoop=1;jettySize=auto;html=1;entryX=0.5;entryY=1;entryDx=0;entryDy=0;" edge="1" parent="1" source="guh7QBim6oXihNVBIwgo-1" target="guh7QBim6oXihNVBIwgo-6">
          <mxGeometry relative="1" as="geometry">
            <Array as="points">
              <mxPoint x="85" y="-305" />
              <mxPoint x="105" y="-305" />
            </Array>
          </mxGeometry>
        </mxCell>
        <mxCell id="guh7QBim6oXihNVBIwgo-9" value="Инормация" style="edgeLabel;html=1;align=center;verticalAlign=middle;resizable=0;points=[];" vertex="1" connectable="0" parent="guh7QBim6oXihNVBIwgo-8">
          <mxGeometry x="0.236" y="1" relative="1" as="geometry">
            <mxPoint x="-34" as="offset" />
          </mxGeometry>
        </mxCell>
        <mxCell id="guh7QBim6oXihNVBIwgo-10" style="edgeStyle=orthogonalEdgeStyle;rounded=0;orthogonalLoop=1;jettySize=auto;html=1;" edge="1" parent="1" source="guh7QBim6oXihNVBIwgo-1" target="guh7QBim6oXihNVBIwgo-11">
          <mxGeometry relative="1" as="geometry">
            <mxPoint x="245" y="-240" as="targetPoint" />
          </mxGeometry>
        </mxCell>
        <mxCell id="guh7QBim6oXihNVBIwgo-31" value="Заявка" style="edgeLabel;html=1;align=center;verticalAlign=middle;resizable=0;points=[];" vertex="1" connectable="0" parent="guh7QBim6oXihNVBIwgo-10">
          <mxGeometry x="0.3652" relative="1" as="geometry">
            <mxPoint as="offset" />
          </mxGeometry>
        </mxCell>
        <mxCell id="guh7QBim6oXihNVBIwgo-23" style="edgeStyle=orthogonalEdgeStyle;rounded=0;orthogonalLoop=1;jettySize=auto;html=1;entryX=0;entryY=0.5;entryDx=0;entryDy=0;" edge="1" parent="1" source="guh7QBim6oXihNVBIwgo-1" target="guh7QBim6oXihNVBIwgo-3">
          <mxGeometry relative="1" as="geometry">
            <Array as="points">
              <mxPoint x="145" y="-210" />
              <mxPoint x="145" y="-310" />
            </Array>
          </mxGeometry>
        </mxCell>
        <mxCell id="guh7QBim6oXihNVBIwgo-24" value="Детали заявки" style="edgeLabel;html=1;align=center;verticalAlign=middle;resizable=0;points=[];" vertex="1" connectable="0" parent="guh7QBim6oXihNVBIwgo-23">
          <mxGeometry x="0.3248" y="3" relative="1" as="geometry">
            <mxPoint x="78" y="-27" as="offset" />
          </mxGeometry>
        </mxCell>
        <mxCell id="guh7QBim6oXihNVBIwgo-1" value="&lt;br&gt;&lt;div&gt;&lt;br&gt;&lt;/div&gt;&lt;div&gt;&lt;br&gt;&lt;/div&gt;&lt;div&gt;&lt;br&gt;&lt;/div&gt;&lt;div&gt;&lt;br&gt;&lt;/div&gt;&lt;div&gt;&lt;br&gt;&lt;/div&gt;&lt;div&gt;Клиент&lt;/div&gt;" style="shape=actor;whiteSpace=wrap;html=1;" vertex="1" parent="1">
          <mxGeometry x="65" y="-240" width="40" height="60" as="geometry" />
        </mxCell>
        <mxCell id="guh7QBim6oXihNVBIwgo-7" style="edgeStyle=orthogonalEdgeStyle;rounded=0;orthogonalLoop=1;jettySize=auto;html=1;" edge="1" parent="1" source="guh7QBim6oXihNVBIwgo-2" target="guh7QBim6oXihNVBIwgo-5">
          <mxGeometry relative="1" as="geometry" />
        </mxCell>
        <mxCell id="guh7QBim6oXihNVBIwgo-15" value="Оповещение" style="edgeLabel;html=1;align=center;verticalAlign=middle;resizable=0;points=[];" vertex="1" connectable="0" parent="guh7QBim6oXihNVBIwgo-7">
          <mxGeometry x="0.3634" y="-1" relative="1" as="geometry">
            <mxPoint y="25" as="offset" />
          </mxGeometry>
        </mxCell>
        <mxCell id="guh7QBim6oXihNVBIwgo-2" value="АБС" style="rounded=1;whiteSpace=wrap;html=1;fontSize=10;" vertex="1" parent="1">
          <mxGeometry x="445" y="-310" width="300" height="220" as="geometry" />
        </mxCell>
        <mxCell id="guh7QBim6oXihNVBIwgo-3" value="Система кол-центра" style="rounded=1;whiteSpace=wrap;html=1;fontSize=10;" vertex="1" parent="1">
          <mxGeometry x="235" y="-330" width="80" height="40" as="geometry" />
        </mxCell>
        <mxCell id="guh7QBim6oXihNVBIwgo-13" style="edgeStyle=orthogonalEdgeStyle;rounded=0;orthogonalLoop=1;jettySize=auto;html=1;" edge="1" parent="1" source="guh7QBim6oXihNVBIwgo-5" target="guh7QBim6oXihNVBIwgo-1">
          <mxGeometry relative="1" as="geometry" />
        </mxCell>
        <mxCell id="guh7QBim6oXihNVBIwgo-14" value="СМС" style="edgeLabel;html=1;align=center;verticalAlign=middle;resizable=0;points=[];" vertex="1" connectable="0" parent="guh7QBim6oXihNVBIwgo-13">
          <mxGeometry x="-0.269" y="1" relative="1" as="geometry">
            <mxPoint y="19" as="offset" />
          </mxGeometry>
        </mxCell>
        <mxCell id="guh7QBim6oXihNVBIwgo-5" value="СМС-шлюз телеком-оператора" style="rounded=1;whiteSpace=wrap;html=1;fontSize=10;" vertex="1" parent="1">
          <mxGeometry x="235" y="-130" width="80" height="40" as="geometry" />
        </mxCell>
        <mxCell id="guh7QBim6oXihNVBIwgo-6" value="Сайт" style="rounded=1;whiteSpace=wrap;html=1;fontSize=10;" vertex="1" parent="1">
          <mxGeometry x="65" y="-410" width="80" height="40" as="geometry" />
        </mxCell>
        <mxCell id="guh7QBim6oXihNVBIwgo-11" value="&lt;br&gt;&lt;div&gt;&lt;br&gt;&lt;/div&gt;&lt;div&gt;&lt;br&gt;&lt;/div&gt;&lt;div&gt;&lt;br&gt;&lt;/div&gt;&lt;div&gt;&lt;br&gt;&lt;/div&gt;&lt;div&gt;&lt;br&gt;&lt;/div&gt;&lt;div&gt;Сотрудник&lt;br&gt;отделения&lt;/div&gt;" style="shape=actor;whiteSpace=wrap;html=1;" vertex="1" parent="1">
          <mxGeometry x="275" y="-270" width="40" height="60" as="geometry" />
        </mxCell>
        <mxCell id="guh7QBim6oXihNVBIwgo-12" style="edgeStyle=orthogonalEdgeStyle;rounded=0;orthogonalLoop=1;jettySize=auto;html=1;entryX=0;entryY=0.318;entryDx=0;entryDy=0;entryPerimeter=0;" edge="1" parent="1" source="guh7QBim6oXihNVBIwgo-11" target="guh7QBim6oXihNVBIwgo-2">
          <mxGeometry relative="1" as="geometry" />
        </mxCell>
        <mxCell id="guh7QBim6oXihNVBIwgo-19" value="&lt;br&gt;&lt;div&gt;&lt;br&gt;&lt;/div&gt;&lt;div&gt;&lt;br&gt;&lt;/div&gt;&lt;div&gt;&lt;br&gt;&lt;/div&gt;&lt;div&gt;&lt;br&gt;&lt;/div&gt;&lt;div&gt;&lt;br&gt;&lt;/div&gt;&lt;div&gt;Сотрудник кредитования&lt;/div&gt;" style="shape=actor;whiteSpace=wrap;html=1;" vertex="1" parent="1">
          <mxGeometry x="475" y="-440" width="40" height="60" as="geometry" />
        </mxCell>
        <mxCell id="guh7QBim6oXihNVBIwgo-20" style="edgeStyle=orthogonalEdgeStyle;rounded=0;orthogonalLoop=1;jettySize=auto;html=1;entryX=0.168;entryY=0.002;entryDx=0;entryDy=0;entryPerimeter=0;" edge="1" parent="1" source="guh7QBim6oXihNVBIwgo-19" target="guh7QBim6oXihNVBIwgo-2">
          <mxGeometry relative="1" as="geometry" />
        </mxCell>
        <mxCell id="guh7QBim6oXihNVBIwgo-22" value="Ставки" style="edgeLabel;html=1;align=center;verticalAlign=middle;resizable=0;points=[];" vertex="1" connectable="0" parent="guh7QBim6oXihNVBIwgo-20">
          <mxGeometry x="0.2107" y="1" relative="1" as="geometry">
            <mxPoint as="offset" />
          </mxGeometry>
        </mxCell>
        <mxCell id="guh7QBim6oXihNVBIwgo-25" style="edgeStyle=orthogonalEdgeStyle;rounded=0;orthogonalLoop=1;jettySize=auto;html=1;entryX=-0.006;entryY=0.166;entryDx=0;entryDy=0;entryPerimeter=0;" edge="1" parent="1" source="guh7QBim6oXihNVBIwgo-3" target="guh7QBim6oXihNVBIwgo-2">
          <mxGeometry relative="1" as="geometry" />
        </mxCell>
        <mxCell id="guh7QBim6oXihNVBIwgo-28" style="edgeStyle=orthogonalEdgeStyle;rounded=0;orthogonalLoop=1;jettySize=auto;html=1;entryX=0.5;entryY=0;entryDx=0;entryDy=0;" edge="1" parent="1" source="guh7QBim6oXihNVBIwgo-27" target="guh7QBim6oXihNVBIwgo-2">
          <mxGeometry relative="1" as="geometry" />
        </mxCell>
        <mxCell id="guh7QBim6oXihNVBIwgo-29" value="Согласования" style="edgeLabel;html=1;align=center;verticalAlign=middle;resizable=0;points=[];" vertex="1" connectable="0" parent="guh7QBim6oXihNVBIwgo-28">
          <mxGeometry x="0.2524" y="-3" relative="1" as="geometry">
            <mxPoint as="offset" />
          </mxGeometry>
        </mxCell>
        <mxCell id="guh7QBim6oXihNVBIwgo-27" value="&lt;br&gt;&lt;div&gt;&lt;br&gt;&lt;/div&gt;&lt;div&gt;&lt;br&gt;&lt;/div&gt;&lt;div&gt;&lt;br&gt;&lt;/div&gt;&lt;div&gt;&lt;br&gt;&lt;/div&gt;&lt;div&gt;&lt;br&gt;&lt;/div&gt;&lt;div&gt;Сотрудник&lt;br&gt;депозитов&lt;/div&gt;" style="shape=actor;whiteSpace=wrap;html=1;" vertex="1" parent="1">
          <mxGeometry x="575" y="-440" width="40" height="60" as="geometry" />
        </mxCell>
        <mxCell id="guh7QBim6oXihNVBIwgo-32" style="edgeStyle=orthogonalEdgeStyle;rounded=0;orthogonalLoop=1;jettySize=auto;html=1;entryX=0.979;entryY=0.887;entryDx=0;entryDy=0;entryPerimeter=0;" edge="1" parent="1" source="guh7QBim6oXihNVBIwgo-11" target="guh7QBim6oXihNVBIwgo-1">
          <mxGeometry relative="1" as="geometry">
            <Array as="points">
              <mxPoint x="245" y="-230" />
              <mxPoint x="245" y="-200" />
              <mxPoint x="190" y="-200" />
              <mxPoint x="190" y="-187" />
            </Array>
          </mxGeometry>
        </mxCell>
        <mxCell id="guh7QBim6oXihNVBIwgo-33" value="документы" style="edgeLabel;html=1;align=center;verticalAlign=middle;resizable=0;points=[];" vertex="1" connectable="0" parent="guh7QBim6oXihNVBIwgo-32">
          <mxGeometry x="-0.1731" y="-2" relative="1" as="geometry">
            <mxPoint as="offset" />
          </mxGeometry>
        </mxCell>
      </root>
    </mxGraphModel>
  </diagram>
</mxfile>
